<?xml version="1.0" encoding="UTF-8"?><svg id="Layer_1" xmlns="http://www.w3.org/2000/svg" xmlns:xlink="http://www.w3.org/1999/xlink" viewBox="0 0 4000 4000"><defs><style>.cls-1{fill:none;}.cls-2{fill:url(#linear-gradient);}.cls-3{fill:#fff;}.cls-4{fill:#ffcf02;}.cls-5{fill:#982e20;}.cls-6{fill:#22a7f0;}.cls-7{fill:#220f2d;}.cls-8{fill:#371a45;}.cls-9{fill:url(#linear-gradient-2);}.cls-10{opacity:.25;}.cls-11{opacity:.35;}.cls-12{opacity:.5;}</style><linearGradient id="linear-gradient" x1="16076.89" y1="7064.85" x2="16070.77" y2="6499.04" gradientTransform="translate(-12109.09 -6830.91) rotate(12.9)" gradientUnits="userSpaceOnUse"><stop offset="0" stop-color="#eb201a"/><stop offset="1" stop-color="#ef7d30"/></linearGradient><linearGradient id="linear-gradient-2" x1="15741.48" y1="7169.97" x2="15734.9" y2="6561.68" gradientTransform="translate(-12095.85 -6850.5) rotate(12.97)" xlink:href="#linear-gradient"/></defs><rect class="cls-1" width="4000" height="4000"/><g><path class="cls-8" d="M1448.85,1694.48l-318.55,1254.35c-.88,3.45-4.39,5.54-7.84,4.67-3.42-.87-5.5-4.33-4.69-7.75l300.65-1258.76c5.2-19.72,34.93-13.29,30.43,7.5h0Z"/><path class="cls-8" d="M1588.69,2462.14l-81.4,355.99c-.89,3.91-4.79,6.36-8.7,5.46-3.8-.87-6.21-4.58-5.53-8.37l64.92-359.37c4.41-20.63,34.73-14.61,30.71,6.28h0Z"/><path class="cls-8" d="M1354.64,835.67c-101.58,358.68-212.94,769.5-319.22,1125.75-.94,2.96-4.11,4.6-7.07,3.66-2.81-.89-4.42-3.81-3.78-6.63,90.28-360.31,204.28-771.07,299.83-1131.07,5.75-19.53,35.21-12.33,30.23,8.29h0Z"/><path class="cls-8" d="M2602.26,2578.87l-61.94,322.33c-.61,3.18-3.68,5.25-6.85,4.64-3.05-.59-5.09-3.47-4.7-6.51l42.55-325.46c3.45-20.97,34.23-16.17,30.94,4.99h0Z"/><path class="cls-8" d="M2513.45,2542.27l-45.06,228.51c-1.82,8.72-14.93,6.75-13.97-2.22,0,0,28.08-231.21,28.08-231.21,3.32-21.17,34.35-16.34,30.96,4.92h0Z"/><g><g><path class="cls-2" d="M2204.62,2998.07c200.22,289.26-161.1,363.64-228.86,650.17,67.76-286.53-224.23-505.31,86.13-681.72"/><path class="cls-8" d="M1975.77,3663.92c-1.19,0-2.41-.14-3.62-.42-8.43-1.99-13.64-10.43-11.65-18.86h0c25.55-108.03-1.57-204.88-27.79-298.54-40.27-143.82-78.31-279.67,121.43-393.2,7.51-4.28,17.09-1.65,21.37,5.88,4.28,7.52,1.64,17.09-5.88,21.37-178.43,101.42-146.79,214.43-106.73,357.5,17.27,61.67,36.06,128.81,38.75,200.86,34.81-63.9,81.99-116.55,125.32-164.91,100.4-112.04,179.7-200.54,64.76-366.6-4.93-7.12-3.15-16.88,3.96-21.81,7.12-4.93,16.88-3.15,21.81,3.96,129.02,186.4,33.72,292.76-67.19,405.36-65.75,73.38-133.75,149.26-159.31,257.34,0,0,0,0,0,0-1.7,7.21-8.14,12.07-15.24,12.07Z"/><path class="cls-4" d="M2159.92,2983.34c46.59,36.35,52.72,78.15,46.94,123.44-14.12,110.64-111.83,143.48-157.54,230.39-2.1-97.48-75.34-168.1-38.32-273.69,15.15-43.22,39.47-78.29,97.77-91.46"/><path class="cls-9" d="M1871.41,2974.64c214.84,311.25-173.7,390.7-246.94,698.64,73.25-307.94-240.35-543.54,93.54-732.75"/><path class="cls-8" d="M1624.47,3688.96c-1.2,0-2.42-.14-3.64-.43-7.2-1.71-12.05-8.14-12.05-15.24,0-1.2,.14-2.42,.43-3.64,27.69-116.39-1.37-220.7-29.47-321.57-42.96-154.22-83.54-299.88,130.53-421.19,7.54-4.27,17.09-1.62,21.36,5.91,4.27,7.53,1.62,17.09-5.91,21.36-192.76,109.24-158.79,231.15-115.79,385.51,18.8,67.5,39.3,141.07,41.47,220.07,37.64-70.27,89.4-127.89,136.88-180.73,108.44-120.7,194.09-216.03,70.22-395.47-4.92-7.12-3.13-16.88,3.99-21.8,7.13-4.91,16.88-3.12,21.8,3.99,137.92,199.8,35.61,313.67-72.7,434.23-70.89,78.9-144.19,160.49-171.89,276.94-1.71,7.2-8.14,12.05-15.23,12.05Z"/><path class="cls-4" d="M1823.37,2958.74c50.03,39.14,56.57,84.09,50.29,132.77-15.33,118.93-120.42,154.1-169.68,247.46-2.12-104.8-80.76-180.82-40.82-294.28,16.35-46.44,42.54-84.11,105.23-98.18"/></g><g><g><path class="cls-3" d="M1442.2,2284.96c19.38,17.63,46.93,30.58,78.04,40.02,109.06,33.12,262.05,23.44,262.05,23.44l110.05-718.35,15.46-100.98c-11.08,3.43-276.42,11.79-418.92,86.99-118.84,62.72-140.96,583.11-46.68,668.87Z"/><g class="cls-10"><path class="cls-8" d="M1442.2,2284.96c19.38,17.63,46.93,30.58,78.04,40.02,1.4,.42,2.81,.84,4.21,1.24,1.98,.59,3.96,1.15,5.96,1.68,2.26,.64,4.56,1.25,6.88,1.83,1.43,.36,2.87,.72,4.3,1.11,5.95,1.43,12,2.78,18.13,4.04,2.64,.54,5.31,1.07,7.98,1.57,.76,.13,1.53,.29,2.29,.42,1.81,.34,3.62,.69,5.46,1,.6,.1,1.24,.21,1.87,.31,3.02,.52,6.03,1.01,9.08,1.5,6.06,.95,12.12,1.8,18.21,2.59,1.52,.2,3.04,.39,4.53,.59,3.04,.36,6.09,.73,9.09,1.06,1.49,.17,3.01,.33,4.53,.5,1.49,.17,3.01,.3,4.5,.47,3.61,.37,7.19,.69,10.73,1,1.74,.16,3.45,.32,5.19,.44,6.55,.55,13.01,1.01,19.36,1.38,1.46,.11,2.88,.18,4.3,.25,.7,.04,1.39,.08,2.09,.11,1.14,.09,2.28,.14,3.42,.19,2.5,.13,4.96,.26,7.4,.36,2.5,.1,4.96,.2,7.4,.3,6.89,.25,13.55,.46,19.96,.57,2.5,.07,4.96,.1,7.36,.11,2.5,.07,4.93,.07,7.29,.08,1.83,.03,3.63,.03,5.37,.03,2.65,.03,5.24,0,7.76,0,1.04,0,2.11-.01,3.12-.02,27.04-.19,44.26-1.29,44.26-1.29l110.05-718.35c-9.73,.67-18.82,1.38-27.13,2.06-31.9,2.61-52.39,4.96-52.39,4.96,0,0-161.66-24.12-186.11,35.97-39.32,96.54-53.42,162.94-88.09,309.3-3.53,14.91-6.81,29.74-9.81,44.42-7.24,35.48-50.34,50.43-77.26,26.22-.17-.15-.34-.31-.51-.46-31.98-29.1-50.57-108.27-56.52-202.63-23.79,172.41-9.33,383.19,47.69,435.05Z"/></g><g class="cls-10"><path class="cls-8" d="M1880.6,1531.7l-15.39,100.44c8.31-.68,17.4-1.39,27.13-2.06l15.46-100.98c-1.93,.61-11.69,1.34-27.2,2.6Z"/></g><path class="cls-8" d="M1728.67,2365.5c-81.22,0-230.83-8.73-297.01-68.94-61.58-56.03-75.91-266.39-54.19-437.39,10.27-80.87,37.46-221.77,104.08-256.93,121.7-64.21,323.99-80.3,400.15-86.36,10.15-.81,19.76-1.57,22.27-1.98,8.03-2,16.32,2.58,18.79,10.58,2.55,8.27-2.08,17.04-10.35,19.6-3.23,1-7.23,1.37-28.22,3.04-67.28,5.35-272.01,21.63-388,82.83-38.34,20.23-71.92,109.57-87.62,233.16-22.84,179.8-2.6,367.68,44.19,410.25,81.51,74.16,326.07,59.57,328.54,59.41,8.71-.53,16.09,6.01,16.63,14.65,.55,8.64-6.01,16.08-14.65,16.63-2.91,.18-23.86,1.44-54.6,1.44Zm175.1-851.54c-.24,.06-.44,.12-.6,.17,.2-.06,.4-.12,.6-.17Z"/><path class="cls-8" d="M1471.95,1615.36c54.45,5.23,106.53,23.96,154.45,49.52-25.08-8.63-50.8-15.22-76.91-19.31-25.33-3.82-51.77-6.06-77.13-4.08-18.71,1.08-19.2-26.6-.41-26.13h0Z"/><path class="cls-3" d="M1386.9,1990.7l130.15,17.31c11.62,1.54,20.74,10.71,22.17,22.35,5.21,42.61,12.14,141.64-30.74,171.75-35.59,25-90.69,18.66-121.51-10.61-34.48-32.74-32.49-129.37-29.17-177.07,1.03-14.83,14.35-25.69,29.09-23.73Z"/><g class="cls-10"><path class="cls-8" d="M1539.21,2030.36c5.23,42.59,12.15,141.63-30.74,171.73-35.6,25.01-90.68,18.67-121.52-10.61-21.19-20.15-28.6-64.46-30.38-106.67,4.69,21.31,12.96,38.86,23.81,50.7,62.22,67.79,115.72-4.87,115.72-4.87,0,0,7.49,18.82,14.23,20.24,28.2,5.97,27.42-83.41,25.94-129.65,1.52,2.75,2.54,5.82,2.93,9.13Z"/></g><path class="cls-8" d="M1455.95,2233.31c-29.08,0-58.65-10.4-79.76-30.45-36.59-34.76-38.69-122.25-34.01-189.52,.79-11.36,6.3-22.01,15.12-29.21,8.83-7.2,20.34-10.48,31.67-8.97l130.15,17.3c18.71,2.49,33.37,17.28,35.66,35.98,6.74,55.13,10.87,152.66-37.29,186.48-17.61,12.37-39.44,18.38-61.55,18.38Zm-72.48-227.17c-2.31,0-4.52,.79-6.35,2.27-2.17,1.77-3.48,4.3-3.67,7.1-5.79,83.12,3.31,144.65,24.33,164.61,26.44,25.11,73.01,29.3,101.71,9.15,29.46-20.69,31.81-94.68,24.18-157.03-.55-4.52-4.12-8.11-8.68-8.71l-130.15-17.3h0c-.46-.06-.91-.09-1.37-.09Z"/><path class="cls-8" d="M1438.26,2206.67c39.25-18.78,53.75-65.03,58.15-105.8,1.59-14.77,3-29.81,.66-44.59,4.16,14.5,4.61,29.87,4.83,44.89,1.14,46.48-11.97,101.22-55.58,126.01-14.53,6.69-23.29-15.51-8.06-20.52h0Z"/></g><g><g><path class="cls-3" d="M2794.55,2507.94c-2.04,14.11-12.9,26.02-28.31,28.42-40.96,6.27-87.09,1.05-127.21-7,0,26.12-20.9,57.47-52.24,47.02-48.27-13.79-100.83-42.32-147.63-77.42-42.16-31.61-67.81-80.56-70.73-133.11-28.63-218.63-77.16-482.66-87.82-660.33-6.74-112.42,1.62-190.21,39.76-200.08,14.16,9.93,28.16,20.79,41.95,32.6,60.6,51.88,102.6,122.14,122.19,199.46l149.31,588.13c67.34,56.53,140.37,113.62,159.07,165.5,2.04,5.64,2.56,11.39,1.67,16.82Z"/><path class="cls-8" d="M2598.88,2594.09c-5.5,0-11.11-.91-16.71-2.74-47.94-13.75-102.07-42.1-152.44-79.86-45.52-34.12-73.53-86.65-76.92-144.2-9.83-75.04-22.22-156.86-34.21-235.98-57.98-382.81-89.1-618.57-2.17-641.06,4.46-1.14,9.17-.3,12.92,2.34,14.79,10.38,29.32,21.65,43.16,33.51,62.28,53.34,106.26,125.1,127.18,207.52l148.05,583.22c5.09,4.27,10.21,8.53,15.33,12.8,64.88,54.09,126.16,105.18,144.57,156.15,5.12,14.18,3.69,29.65-3.91,42.45-7.56,12.73-20.37,21.32-35.15,23.59-32.71,5.01-71.8,3.64-116.35-4.06-4.03,14.97-12.76,28.45-24.44,36.87-8.68,6.26-18.59,9.45-28.9,9.45Zm-280.34-1070.7c-14.11,10.29-30.73,50.07-21.93,187.19,7.39,114.98,30.57,268.03,52.98,416.04,12.04,79.48,24.48,161.66,34.37,237.17,.05,.38,.09,.77,.11,1.16,2.71,48.52,26.21,92.79,64.46,121.46,47.5,35.6,98.13,62.2,142.57,74.9,.22,.06,.43,.13,.65,.2,6.69,2.23,12.48,1.48,17.71-2.29,8.05-5.81,13.9-18.36,13.9-29.86,0-4.7,2.11-9.15,5.74-12.13,3.64-2.98,8.42-4.17,13.02-3.24,47.76,9.61,88.71,11.91,121.72,6.86,5.56-.85,10.16-3.91,12.95-8.62,2.84-4.78,3.33-10.38,1.37-15.79-15.52-42.98-76.34-93.68-135.16-142.72-6.44-5.37-12.89-10.74-19.28-16.11-2.51-2.11-4.3-4.96-5.11-8.15l-149.29-588.12c-19.32-76.12-59.84-142.31-117.19-191.43-10.83-9.28-22.1-18.18-33.59-26.53Z"/><path class="cls-8" d="M2650.62,2360.09c-25.38-24.78-68.94-29.98-104.11-23.66-6.96,1.31-9.72-8.77-3.05-11.17,40.71-14.14,90.17-15.04,127.25,10.78,18.26,13.7-3.34,39.61-20.09,24.06h0Z"/><path class="cls-8" d="M2649.21,2547.18c-18.59-6.61-33.88-18.54-47.35-31.83-12.79-12.69-23.77-26.13-34.82-39.34-2.06-2.47-1.74-6.14,.73-8.21,2.18-1.82,5.31-1.77,7.43-.04,24.49,19.48,51.57,44.29,82.03,49.11,22.95,4.43,14.18,37.77-8.02,30.3h0Z"/><g class="cls-10"><path class="cls-8" d="M2794.55,2507.94c-2.04,14.11-12.9,26.02-28.31,28.42-40.96,6.27-87.09,1.05-127.21-7,0,26.12-20.9,57.47-52.24,47.02-48.27-13.79-100.83-42.32-147.63-77.42-42.16-31.61-67.81-80.56-70.73-133.11-28.63-218.63-77.16-482.66-87.82-660.33,29.57-2.3,59.97-1.62,88.71-8.72l27.53-17.87c78.05,171.87,97.74,365.22,90.17,553.81-.89,21.73-1.31,45.92,13.22,62.11,30.82,34.53,98.48,3.08,129.14,37.77-27.22-15.15-63.53,8.78-70.21,39.18-6.63,30.4,8.36,61.59,28.05,85.68,31.14,38.08,76.64,65.82,125.74,69.38,28.21,2.04,57.26-4.7,81.6-18.91Z"/></g></g><g><path class="cls-3" d="M2309.91,2848.03c46.29,49.63,72.41,102.6,41.32,165.24-.57,1.15-1.2,2.35-1.83,3.55-11.86,22.41-35.52,36.25-60.86,36.46-126.32,.84-240-42.63-323.42-116.45l-88.81-130.6,114.93-470.17,294.9-93.51,133.48-42.32c-.26,213.2-27.64,428.43-109.71,647.79Z"/><path class="cls-8" d="M2285.02,3068.95c-125.34,0-242.5-42.67-330.29-120.38-.97-.86-1.84-1.85-2.57-2.92l-88.81-130.6c-2.5-3.67-3.32-8.23-2.27-12.53l114.93-470.17c1.3-5.32,5.27-9.57,10.49-11.22l428.38-135.83c4.76-1.51,9.96-.66,14,2.3,4.03,2.96,6.41,7.66,6.41,12.66-.29,237.62-35.42,448.5-107.36,644.27,36.9,41.41,75.83,103,35.32,179.62-14.5,27.43-43.08,44.59-74.59,44.8-1.21,0-2.43,.01-3.63,.01Zm-308.06-142.56c82.69,72.5,193.17,112.1,311.49,111.21,19.94-.13,37.99-10.9,47.08-28.11,26.26-49.66,15.17-94.75-37.08-150.77-4.06-4.35-5.3-10.62-3.22-16.18,70.66-188.86,106.24-392.15,108.59-620.85l-399.45,126.66-111.18,454.84,83.77,123.2Z"/><path class="cls-8" d="M2316.92,2862.04c-49.48,19.91-103.66,12.24-149.91-9.38-5.5-2.63-2.12-11.18,3.7-9.28,42.71,13.11,94,13.37,132.19-9.38,19.67-10.9,34.59,18.78,14.02,28.03h0Z"/><path class="cls-8" d="M2240.08,2711.98c-113.31,0-236.66-44.49-318.85-122.15-6.29-5.94-6.57-15.86-.63-22.16,5.94-6.29,15.86-6.57,22.16-.63,119.98,113.36,305.54,136.28,415.62,92.94,8.06-3.17,17.16,.79,20.32,8.84,3.17,8.05-.79,17.15-8.84,20.32-39.29,15.47-83.72,22.83-129.78,22.83Z"/><g class="cls-10"><path class="cls-8" d="M2351.23,3013.27c-.57,1.15-1.2,2.35-1.83,3.55-11.86,22.41-35.52,36.25-60.86,36.46-126.32,.84-240-42.63-323.42-116.45l-88.81-130.6,114.93-470.17,294.9-93.51c6.63,6.9,11.65,15.1,14.37,24.76,3.97,14.16,2.25,29.2-.63,43.62-7.52,37.46-23.04,73.29-45.19,104.48l8.57-5.38c-32.81,25.29-63.32,55.01-82.12,91.94-16.93,33.33-23.46,70.84-29.78,107.72-5.69,32.96-11.34,65.93-16.98,98.89-5.49,32.02-10.92,65.56-.89,96.44,9.77,30.14,39.39,56.32,70.37,51.77-23.14,4.34-49.37,12.07-57.26,34.01-5.22,14.58-.1,30.82,7,44.61,25.28,49.05,77.16,83.27,132.12,87.19,22.2,1.57,44.61-1.78,65.51-9.35Z"/></g></g><g><path class="cls-3" d="M2439.99,2150.35c-13.58,68.85-38.45,128.57-75.65,176-65.46,83.74-169.05,129.24-315.64,119.42-15.2,154.06-33.96,301.54-83.59,391.81,46.13,21,73.19,73.92,64.88,133.27-.78,5.69-1.88,11.39-3.34,17.19-4.44,17.66-18.49,31.29-36.05,35.94-161.95,42.52-431.56-57.1-406.85-170.72,49.52-167.43,60.39-363.86,52.24-574.65l32.81-141.73,129.14-558.3,501.51-88.81,99.26,182.84c51.51,178.25,67.44,345,41.27,477.74Z"/><path class="cls-8" d="M2405.69,1670.58c85.53,250.67,124.07,678.37-193.23,775.53-53.41,15.26-110.03,18.94-164.81,15.29,0,0,16.65-14.11,16.65-14.09-6.69,66.95-13.91,134.07-25.46,200.98-12.14,67.6-27.24,135.14-59.99,196.83,0,0-7.25-21.82-7.25-21.82,47.37,21.19,75.22,72.89,75.44,123.47,.29,17.07-1.81,33.04-6.55,49.72-6.28,18.98-21.6,34.2-40.06,40.76-45.45,13.41-94.2,14.31-140.8,10.07-61.72-6.07-122.07-22.02-178.17-48.86-55.18-27.09-126.67-76.93-113.03-148.55,54.44-185.76,57.68-382.35,52.29-574.86,0,0,161.95-700.03,161.95-700.03,1.46-6.3,6.54-10.83,12.54-11.9l501.51-88.81c8.52-1.51,16.66,4.18,18.17,12.7,1.51,8.52-4.18,16.66-12.7,18.17l-501.51,88.81,12.54-11.9-161.95,700.03c5.2,74.71,3.34,196.53-3.12,287.21-6.94,95.21-22.79,199.18-49.07,287.24-9.27,53.74,53.96,92.3,96.13,113.72,78.11,36.71,167.87,54.69,253.9,45.41,12.39-1.3,24.59-3.83,36.66-6.72,20.79-5.11,26.88-22.21,28.77-41.52,6.94-44.86-13.32-96.71-55.91-115.62-7.88-3.58-11.36-12.86-7.79-20.74,30.76-57.67,45.6-123.66,57.11-188.19,51.73-294.34-29.92-184.47,165.71-219.83,234.07-45.26,280.72-293.27,261.37-497.16-7.17-84.49-23.85-168.12-43.3-251.31-.94-3.92,1.49-7.86,5.41-8.78,3.67-.86,7.34,1.26,8.54,4.74h0Z"/><path class="cls-8" d="M1972.13,2851.6c-46.49,20.36-99.53,16.3-145.11-1.89-3.74-1.48-5.58-5.71-4.1-9.45,1.37-3.48,5.13-5.31,8.65-4.36,42,11.16,89.22,9.79,126.54-12.34,19.51-10.5,34.17,18.66,14.02,28.04h0Z"/><path class="cls-8" d="M2119.05,2461.81c-71.67,3.65-148.22-11.64-204.86-57.71-2.84-2.28-3.3-6.43-1.02-9.28,2.2-2.76,5.98-3.14,8.85-1.41,29.57,15.65,61.48,27.32,94.57,32.31,33.45,5.96,67.92,5.44,101.83,4.87,20.11,.49,20.75,29.88,.63,31.22h0Z"/><path class="cls-8" d="M1891.15,2700.36c-103.71,0-214.22-31.95-272.25-99.85-5.62-6.58-4.85-16.47,1.73-22.1,6.58-5.63,16.47-4.85,22.1,1.73,74.55,87.22,257.93,109.1,372.09,70.39,8.2-2.77,17.09,1.61,19.88,9.81,2.78,8.2-1.61,17.1-9.81,19.88-39.19,13.29-85.74,20.14-133.74,20.14Z"/><g class="cls-10"><path class="cls-8" d="M1861,1800.24c-2.6,22.14-5.2,44.27-7.81,66.41-2.14,18.17-4.27,36.64-1.18,54.68,3.09,18.03,12.18,35.9,27.87,45.32,23.5,14.12,53.49,5.91,79.54-2.66,3.22,27.39,6.45,54.77,9.67,82.16,1.19,10.08,2.19,21.04-3.17,29.66-5.27,8.47-15.33,12.45-24.79,15.62-50.55,16.99-103.58,26.58-156.88,28.37-17.47,.59-37.97-1.22-47.4-15.94-7.03-10.98-5.12-25.21-2.95-38.06,8.13-48.24,16.37-96.86,33.88-142.54,17.51-45.68,45.16-88.79,85.32-116.72"/></g><g class="cls-10"><path class="cls-8" d="M1856.04,2847.77c6.06,1.2,12.07,2.72,17.87,4.28-6.01-1.2-11.96-2.66-17.87-4.28Z"/></g><g class="cls-10"><path class="cls-8" d="M2057.43,2438.09c11.44,1.15,22.99,1.72,34.53,1.78-11.49,.37-23.19,.1-34.53-1.78Z"/></g><g class="cls-10"><path class="cls-8" d="M2439.99,2150.35c-13.58,68.85-38.45,128.57-75.65,176l-15.88-15.72c-86.77-4.39-173.86-1.52-260.16,8.52-19.75,2.25-39.91,5.07-57.47,14.42-17.55,9.35-32.18,26.59-32.91,46.44-.78,20.95,14.16,40.07,32.81,49.58,8.41,4.28,17.4,6.95,26.69,8.52-23.4-2.4-46.55-7.21-68.96-14.31-29.62-9.35-60.13-22.93-90.53-16.46-37.04,7.84-61.85,43.46-74.24,79.25-32.44,93.98-4.86,199.93-33.28,295.21-3.34,11.18-7.31,23.93-1.25,33.85,3.5,5.75,9.56,9.19,15.52,12.22,16.35,8.31,33.54,14.99,51.25,19.85-18.91-3.87-38.4-4.81-54.23,5.33-22.99,14.73-27.48,48.74-15.36,73.24,12.17,24.45,36.73,40.43,62.06,50.62,57.88,23.2,125.12,20.06,181.59-6.06-.78,5.69-1.88,11.39-3.34,17.19-4.44,17.66-18.49,31.29-36.05,35.94-161.95,42.52-431.56-57.1-406.85-170.72,49.52-167.43,60.39-363.86,52.24-574.65l32.81-141.73c111.8-24.03,224.43-44.46,338.42-51.67,134.89-8.57,272.33,1.78,400.27,45.4,9.46,3.19,19.12,6.74,26.59,13.37,2.25,1.99,4.18,4.13,5.9,6.37Z"/></g></g><g><g><path class="cls-3" d="M2381.9,2267.87l-374.15,.99c-44.28,.13-80.65-36.01-80.78-80.35l-.52-199.1c-.1-38.82,27.61-71.49,64.26-79.1,5.19-1.11,10.57-1.65,16.09-1.68l374.09-.99c44.34-.13,80.7,36.02,80.78,80.35l.45,157.7,.13,41.41c.13,44.34-36.07,80.64-80.35,80.78Z"/><g class="cls-10"><path class="cls-8" d="M2381.9,2267.87l-374.15,.99c-44.28,.13-80.65-36.01-80.78-80.35l-.52-199.1c-.1-38.82,27.61-71.49,64.26-79.1,21.28,14.05,34.8,23.04,34.8,23.04,18.64,159.77,11.93,278.27,259.86,261.17,85.47-5.89,142.68-31.17,176.75-48.84l.13,41.41c.13,44.34-36.07,80.64-80.35,80.78Z"/></g><path class="cls-8" d="M2007.55,2281.94c-51.51,0-93.48-41.83-93.62-93.38l-.53-199.13c-.14-51.62,41.75-93.74,93.37-93.87l374.12-1c.08,0,.17,0,.25,0,51.51,0,93.48,41.83,93.62,93.38l.53,199.13c.07,24.92-9.63,48.43-27.31,66.21-17.68,17.78-41.14,27.6-66.06,27.67l-374.12,1c-.08,0-.17,0-.26,0Zm373.59-361.26h-.18l-374.12,1c-37.22,.1-67.42,30.47-67.32,67.69l.53,199.13c.05,17.94,7.14,34.85,19.97,47.61,12.78,12.72,29.66,19.71,47.53,19.71h.19l374.12-1c17.94-.05,34.85-7.14,47.61-19.97,12.76-12.83,19.76-29.78,19.71-47.72l-.53-199.13c-.1-37.16-30.37-67.32-67.51-67.32Z"/><path class="cls-3" d="M2396.92,2266.36c-4.85,1.02-9.83,1.52-15.01,1.51l-374.15,.99c-32.45,.07-60.64-19.27-73.42-47.15-4.66-10.12-7.29-21.37-7.3-33.2l-.27-88.45-.09-29.18-.22-81.47c-.13-44.34,36.07-80.64,80.35-80.77l80.85-.19c-37.25,7.12-65.53,40.05-65.45,79.26l.25,107.55,.26,91.61c.13,44.28,36.49,80.49,80.78,80.35l293.42-.85Z"/><g class="cls-10"><path class="cls-8" d="M2396.92,2266.36c-4.85,1.02-9.83,1.52-15.01,1.51l-374.15,.99c-44.28,.13-80.65-36.01-80.72-80.35l-.36-117.64c9.47,20.76,26.44,46.23,53.5,48.84,14.84,1.46,29.42-9.26,42.29-24.47l.26,91.61c.13,44.28,36.49,80.49,80.78,80.35l293.42-.85Z"/></g><path class="cls-8" d="M2007.48,2281.94c-24.79,0-48.17-9.69-65.88-27.3-17.78-17.69-27.6-41.15-27.65-66.07l-.53-199.13c-.08-24.91,9.62-48.43,27.3-66.21,17.68-17.77,41.14-27.6,66.06-27.68l80.82-.2s.02,0,.03,0c6.73,0,12.35,5.11,13,11.81,.65,6.71-3.92,12.81-10.54,14.08-31.86,6.12-54.91,34.06-54.83,66.45l.53,199.13c.04,17.95,7.13,34.86,19.96,47.62,12.83,12.76,29.8,19.59,47.68,19.7l293.45-.81h.04c6.7,0,12.31,5.07,12.99,11.73,.68,6.68-3.81,12.79-10.39,14.12-5.8,1.18-11.75,1.84-17.67,1.75l-374.08,1.01c-.1,0-.2,0-.3,0Zm28.87-360.34l-29.49,.07c-17.94,.06-34.86,7.16-47.62,19.98-12.76,12.83-19.76,29.77-19.7,47.71l.53,199.13h0c.04,17.95,7.12,34.86,19.96,47.62,12.78,12.71,29.63,19.7,47.46,19.7h.22l32.55-.09c-.99-.9-1.96-1.83-2.92-2.78-17.79-17.69-27.61-41.16-27.66-66.08l-.53-199.12c-.07-25.51,10.21-49.03,27.2-66.15Z"/><path class="cls-6" d="M2170,2088.49c-.02,7.36-10.56,66.77-10.56,66.77,0,0-18.83-.06-41.95-.13-28.89-.09-52.21-30.07-52.1-66.96,.11-36.89,23.62-66.73,52.51-66.64,19.49,.06,41.95,.13,41.95,.13,0,0,10.18,54.84,10.15,66.83Z"/><g class="cls-10"><path class="cls-8" d="M2170,2088.49c-.02,7.36-10.56,66.77-10.56,66.77,0,0-18.83-.06-41.95-.13-28.89-.09-52.21-30.07-52.1-66.96,.11-36.89,23.62-66.73,52.51-66.64,19.49,.06,41.95,.13,41.95,.13,0,0,10.18,54.84,10.15,66.83Z"/></g><path class="cls-8" d="M2159.44,2165.71h-.03l-41.95-.13c-17.25-.05-33.28-8.47-45.14-23.71-11.27-14.48-17.44-33.56-17.38-53.73,.13-42.53,28.3-77.06,62.83-77.06h.16l41.95,.13c5.02,.02,9.32,3.6,10.24,8.54,1.06,5.71,10.36,56.16,10.32,68.77-.02,7.67-8.21,54.42-10.72,68.56-.89,4.99-5.22,8.63-10.29,8.63Zm-41.67-133.73c-23.03,0-41.84,25.19-41.93,56.22-.05,15.52,4.56,30.02,12.97,40.84,7.82,10.06,18.02,15.61,28.71,15.64l33.15,.1c4.52-25.92,8.79-52.27,8.87-56.34,.02-7.04-4.66-35.42-8.42-56.36l-33.26-.1h-.1Zm52.22,56.51h0Z"/><ellipse class="cls-6" cx="2159.64" cy="2088.46" rx="66.8" ry="52.3" transform="translate(64.55 4241.68) rotate(-89.82)"/><g class="cls-10"><path class="cls-8" d="M2107.35,2088.31c-.13,36.87,23.2,66.87,52.08,66.96,28.92,.09,52.43-29.76,52.51-66.67,.03-4.98-.4-9.86-1.22-14.55-7.51,25.32-26.7,43.32-49.13,43.21-24.94-.08-45.78-22.44-50.86-52.37-2.17,7.29-3.33,15.17-3.38,23.42Z"/></g><path class="cls-3" d="M2107.35,2088.31c-.02,2.51,.09,4.99,.33,7.43,5.83-28.89,26.42-50.2,50.82-50.11,26.91,.11,49.04,26.14,51.74,59.58,1.1-5.34,1.66-10.87,1.7-16.61,.13-36.87-23.2-66.87-52.08-66.96-28.88-.05-52.38,29.76-52.51,66.67Z"/><path class="cls-8" d="M2159.57,2165.71h-.16c-17.25-.05-33.28-8.47-45.14-23.71-11.27-14.48-17.44-33.56-17.38-53.73,.13-42.53,28.3-77.06,62.83-77.06h.16c34.6,.11,62.64,34.85,62.51,77.44h0c-.13,42.53-28.3,77.06-62.83,77.06Zm.15-133.6c-23.03,0-41.83,25.19-41.93,56.22-.05,15.52,4.56,30.02,12.97,40.84,7.82,10.06,18.02,15.61,28.71,15.64h.1c23.04,0,41.84-25.19,41.93-56.22,.1-31.07-18.6-56.41-41.68-56.48h-.1Zm52.23,56.51h0Z"/><path class="cls-8" d="M2265.59,2279.28c-.09,0-.18,0-.27,0-6.92-.14-12.42-5.87-12.27-12.8l2.9-138.1c.09-4.2,2.28-8.09,5.83-10.33l58.14-36.77,.14-173.41c0-6.92,5.62-12.53,12.54-12.53h0c6.92,0,12.53,5.62,12.53,12.55l-.14,180.31c0,4.3-2.21,8.29-5.84,10.59l-58.27,36.86-2.76,131.37c-.14,6.83-5.73,12.27-12.53,12.28Z"/></g><g><rect class="cls-3" x="1688.98" y="2034.99" width="282.1" height="113.97" rx="56.99" ry="56.99" transform="translate(3660.05 4183.96) rotate(-180)"/><g class="cls-10"><path class="cls-8" d="M1705.16,2052.24c3.58,28.03,27.47,49.71,56.47,49.71h168.13c16.01,0,30.45-6.62,40.8-17.24,.3,2.39,.52,4.8,.52,7.27,0,31.47-25.51,56.99-56.99,56.99h-168.13c-31.47,0-56.99-25.51-56.99-56.99,0-15.47,6.18-29.47,16.19-39.74Z"/></g><path class="cls-8" d="M1914.09,2162.03h-168.13c-38.63,0-70.05-31.42-70.05-70.05s31.42-70.05,70.05-70.05h168.13c38.63,0,70.05,31.42,70.05,70.05s-31.42,70.05-70.05,70.05Zm-168.13-113.97c-24.22,0-43.93,19.7-43.93,43.93s19.71,43.93,43.93,43.93h168.13c24.22,0,43.93-19.7,43.93-43.93s-19.71-43.93-43.93-43.93h-168.13Z"/></g></g><g><path class="cls-3" d="M1886.75,1630.81l-26.12,167.17c-3.71,5.96-7.63,13.74-11.75,23.14-35.89,81.44-88.5,284.66-156.57,465.73-30.72,81.76-85.26,152.75-157.51,201.81-5.33,3.66-10.45,6.95-15.36,9.87-14.42,8.62-31.45,12.59-47.96,9.51-9.04-1.72-16.93-5.07-23.14-10.24-11.55-9.4-17.66-24.81-16.09-46.81-8.78,1.52-17.45,2.87-26.07,3.97h-.05c-48.22,6.48-93.56,6.16-132.74-8.41-21.52-8.04-36.2-28.68-35.89-51.61v-.78c.26-11.44,4.49-22.2,11.39-31.03v-.05c3.76-4.81,8.36-9.04,13.53-12.49,29.36-19.43,56.21-41.17,80.29-65.25,27.11-27.06,47.38-60.13,60.49-96.12,103.86-284.92,168.16-628.51,337.27-589.75l146.28,31.34Z"/><path class="cls-8" d="M1865.29,1800.88c-27.48,59.02-50.4,154.6-70.73,217.62-22.3,73.6-44.78,147.32-69.93,220.34-12.82,36.93-25.06,74.48-43.93,108.94-35.11,65.86-87.19,123.24-150.82,162.63-51.82,33.36-119.86,6.65-113.26-60.54,0,0,18.32,16.57,18.32,16.57-50.68,8.7-105.38,13.63-155.93-1.51-26.23-6.43-48.95-26.06-55.2-53.03-8.06-32.69,8.74-62.87,36.99-79.11,47.22-32.98,93.13-72,117.73-125.26,47.93-118.44,79.7-243.35,124.14-363.57,38.51-100.05,103.74-289.58,240.71-259.88,38.15,8.09,107.94,23.18,146.65,31.42,20.05,5.04,13.86,34.34-6.57,30.65-28.29-6.18-98.61-21.05-125.84-26.97-11.25-2.43-28.17-6.6-39.39-6.93-79.76-2.1-126.45,100.84-155,163.58-55.67,131.2-91.41,269.78-139.95,403.96-14.03,42.72-36.28,83.5-68.34,115.51-20.83,20.98-43.41,39.91-67.4,57.06l-9.04,6.31-8.62,5.86c-8.35,5.88-14.54,15.05-16.21,25.02-2.61,15.06,5.03,31.08,18.29,38.93,10.84,6,23.18,8.58,35.28,11.08,40.44,7.3,81.45,2.96,122.32-3.99,8.53-1.47,16.64,4.25,18.12,12.78,.32,8.81-.49,18.53,2.58,25.75,9.55,24.97,44.36,22.92,63.36,9.61,58.93-36.72,107.81-88.98,141.03-149.99,18.38-33,30.47-68.85,43.59-104.2,26.24-71.94,49.96-144.95,73.58-218.12,21.18-64,41.09-129.04,69.63-190.35,0,0,6.64-13.15,6.64-13.15l7.87-12.79c1.59-2.58,4.96-3.38,7.54-1.79,2.61,1.61,3.36,5.01,1.78,7.59h0Z"/><path class="cls-8" d="M1389.59,2441.32c35.61-4.35,71.32-13.25,97.23-39.65,3.03-3.14,8.19,.93,5.81,4.6-20.87,33.62-59.46,53.15-95.8,65.54-22.1,6.74-30.04-26.57-7.23-30.5h0Z"/><path class="cls-8" d="M1753.98,2120.6c-.62,0-1.25-.04-1.88-.13-132.08-18.99-237.97-77.1-283.25-155.43-3.61-6.25-1.47-14.23,4.77-17.84,6.25-3.61,14.23-1.47,17.84,4.77,41.31,71.46,140.13,124.79,264.36,142.65,7.14,1.03,12.1,7.65,11.07,14.79-.94,6.51-6.52,11.2-12.91,11.2Z"/><g class="cls-10"><path class="cls-8" d="M1848.88,1821.12c-35.89,81.44-88.5,284.66-156.57,465.73-30.72,81.76-85.26,152.75-157.51,201.81-5.33,3.66-10.45,6.95-15.36,9.87-14.42,8.62-31.45,12.59-47.96,9.51-9.04-1.72-16.93-5.07-23.14-10.24,13.9,1.83,27.74,1.15,40.85-4.02,19.49-7.68,33.96-24.24,47.28-40.43,40.96-49.89,79.04-103.07,104.27-162.52,10.92-25.7,19.38-52.4,27.79-78.99,16.4-51.88,32.81-103.7,49.21-155.52,28.05-88.6,59.08-181.9,129.4-242.71l1.72,7.52Z"/></g><g class="cls-10"><path class="cls-8" d="M1480.95,2406.43l-11.49,8.99c-19.43,15.62-40.75,28.89-63.26,39.55h-.05c-48.22,6.48-93.56,6.16-132.74-8.41-21.52-8.04-36.2-28.68-35.89-51.61v-.78c.26-11.44,4.49-22.2,11.39-31.03v-.05c8.46-6.63,17.34-12.75,26.07-18.65-14.89,11.08-13.48,36.31-.89,50.36,13.06,14.58,33.49,19.85,52.82,22.72,51.35,7.73,104.38,3.92,154.06-11.08Z"/></g></g><path class="cls-5" d="M2032.37,1252.92c-1.16,.54-2.31,1.08-3.46,1.58,.87,0,1.73-.01,2.6,0,.57-1.1,.86-1.58,.86-1.58Z"/><g class="cls-11"><path class="cls-8" d="M1963.44,1482.85l35.93,116.18c8.59-5.07,18.01-10.59,28.13-16.39l-36.13-116.8c-1.77,1.66-11.89,7.55-27.93,17.01Z"/></g><g><g><path class="cls-3" d="M2582.89,1083.69c-11.93,104.66-50.4,206.97-115.39,296.52-13.26,18.25-27.56,35.95-42.98,53.02-7.48,8.33-15.3,16.51-23.33,24.6-24.33,24.27-50.15,46.17-77.2,65.72-23.28,16.91-47.5,32.04-72.38,45.45-30.03,16.2-61.11,29.81-92.87,40.9-11.59,4.01-23.26,7.7-34.99,11.08-214.9,61.4-455.55,9.77-625.17-155.8-249.91-243.86-250.94-642.53-2.4-890.45,47.9-47.72,101.57-86.48,158.82-116,6.66-3.51,13.44-6.85,20.29-10.04,18.25-8.65,36.81-16.41,55.63-23.24,43.53-15.79,88.44-26.75,133.81-32.88,45.35-6.18,91.27-7.53,136.78-4.06,14.47,1.1,28.9,2.66,43.32,4.75,21.59,3.14,43.03,7.31,64.31,12.67,106.02,26.41,206.4,80.19,289.63,161.45,143.77,140.27,205.14,331.75,184.1,516.31Z"/><path class="cls-8" d="M1945.72,1647.5c-165.82,0-327.66-63.49-448.23-181.19-120.69-117.76-187.66-275.1-188.59-443.04-.93-169.28,65.18-328.97,186.17-449.66,47.23-47.04,100.79-86.17,159.21-116.28,6.36-3.36,13.02-6.65,20.35-10.07,18.19-8.62,36.95-16.46,55.76-23.29,43.21-15.68,88.34-26.77,134.14-32.96,45.36-6.18,91.49-7.55,137.11-4.07,14.68,1.11,29.29,2.71,43.42,4.76,22.06,3.21,43.75,7.48,64.47,12.7,109.4,27.25,209.8,83.22,290.34,161.85,139.3,135.91,206.57,324.58,184.57,517.61h0c-12.2,107.02-52.2,209.81-115.68,297.27-13.44,18.5-27.94,36.38-43.08,53.15-6.93,7.72-14.58,15.79-23.38,24.66-24.04,23.97-50.08,46.14-77.39,65.89-22.84,16.59-47.25,31.92-72.55,45.55-29.61,15.97-60.93,29.76-93.09,41-11.58,4-23.38,7.74-35.08,11.11-58.84,16.81-118.92,25-178.47,25Zm6.61-1259.28c-29.22,0-58.45,1.98-87.37,5.92-45.58,6.16-90.5,17.2-133.49,32.8-18.71,6.8-37.39,14.6-55.5,23.19-7.29,3.4-13.9,6.67-20.23,10.01-58.14,29.97-111.44,68.9-158.44,115.72-120.39,120.09-186.17,278.98-185.25,447.41,.92,167.09,67.56,323.63,187.64,440.8,163.07,159.18,402.02,218.74,623.64,155.41,11.64-3.35,23.39-7.07,34.91-11.05,32-11.18,63.17-24.9,92.63-40.8,25.18-13.56,49.47-28.82,72.2-45.33,27.19-19.65,53.09-41.71,77.01-65.57,8.76-8.83,16.37-16.86,23.27-24.54,15.08-16.69,29.5-34.49,42.88-52.9,63.16-87.02,102.96-189.29,115.1-295.77l1.56,.18-1.56-.18c21.89-192.06-45.04-379.78-183.64-515-80.14-78.24-180.05-133.93-288.91-161.05-20.62-5.2-42.2-9.45-64.16-12.64-14.06-2.04-28.6-3.63-43.21-4.74-16.31-1.25-32.7-1.87-49.08-1.87Z"/></g><g class="cls-10"><path class="cls-8" d="M1498.59,1465.16c169.6,165.61,410.29,217.23,625.18,155.8,11.74-3.36,23.4-7.05,34.97-11.06,31.77-11.08,62.83-24.71,92.87-40.88,24.87-13.42,49.11-28.54,72.37-45.44,27.07-19.56,52.87-41.45,77.23-65.73,8-8.12,15.83-16.28,23.33-24.59,15.42-17.08,29.68-34.81,42.96-53.05,65-89.55,103.49-191.83,115.4-296.53,6.57-57.5,5.12-115.71-4.33-172.8-13.69,99.64-51.57,196.66-113.57,282.09-13.24,18.28-27.54,35.97-42.96,53.05-7.46,8.32-15.29,16.48-23.33,24.59-24.36,24.28-50.15,46.17-77.19,65.73-23.3,16.9-47.51,32.02-72.37,45.44-30.04,16.17-61.14,29.8-92.87,40.88-11.62,4.01-23.27,7.7-35.01,11.06-214.89,61.43-455.53,9.81-625.18-155.8-98.99-96.58-158.88-217.46-179.73-343.6-26.08,189.02,34.71,386.91,182.23,530.84Z"/></g><path class="cls-8" d="M1945.73,1658.04c-168.54,0-333.05-64.55-455.61-184.19-122.72-119.75-190.83-279.75-191.77-450.53-.95-172.12,66.27-334.49,189.27-457.19,48-47.82,102.45-87.58,161.82-118.19,6.43-3.39,13.24-6.76,20.73-10.25,18.43-8.74,37.5-16.7,56.61-23.65,43.92-15.94,89.79-27.21,136.33-33.5,46.09-6.28,92.97-7.67,139.33-4.13,14.91,1.13,29.77,2.76,44.13,4.84,22.42,3.26,44.47,7.6,65.54,12.91,111.19,27.7,213.26,84.6,295.14,164.53,141.65,138.21,210.06,330.06,187.68,526.36h0c-12.41,108.82-53.08,213.34-117.63,302.27-13.67,18.81-28.4,36.98-43.79,54.03-7.03,7.83-14.8,16.02-23.72,25.02-24.47,24.41-50.94,46.94-78.7,67.01-23.2,16.86-48.02,32.44-73.73,46.29-30.09,16.23-61.93,30.25-94.62,41.67-11.79,4.07-23.76,7.86-35.64,11.28-59.8,17.09-120.85,25.41-181.38,25.41Zm6.59-1259.28c-28.74,0-57.5,1.94-85.94,5.82-44.85,6.06-89.03,16.92-131.32,32.26-18.4,6.68-36.76,14.36-54.57,22.8-7.19,3.35-13.65,6.55-19.83,9.81-57.27,29.52-109.69,67.81-155.92,113.86-118.37,118.07-183.05,274.29-182.14,439.88,.91,164.24,66.41,318.12,184.46,433.31,160.36,156.55,395.39,215.1,613.36,152.82,11.45-3.29,23.02-6.96,34.37-10.88,31.45-10.98,62.1-24.48,91.07-40.11,24.77-13.34,48.65-28.34,71.01-44.58,26.75-19.34,52.24-41.04,75.76-64.5,8.59-8.66,16.09-16.57,22.87-24.12,14.85-16.44,29.03-33.94,42.19-52.05,62.09-85.54,101.22-186.09,113.15-290.76,21.52-188.8-44.28-373.32-180.52-506.25-78.81-76.93-177.04-131.69-284.09-158.36-20.3-5.12-41.53-9.3-63.12-12.44-13.82-2-28.12-3.57-42.49-4.66-16.05-1.23-32.17-1.84-48.29-1.84Zm630.56,684.92h0Z"/><path class="cls-8" d="M1945.74,1661.59c-169.46,0-334.86-64.9-458.09-185.2-123.41-120.42-191.89-281.31-192.84-453.05-.95-173.08,66.63-336.34,190.31-459.72,48.26-48.07,103-88.05,162.71-118.83,6.45-3.4,13.31-6.8,20.85-10.31,18.51-8.77,37.68-16.79,56.9-23.77,44.16-16.02,90.27-27.35,137.07-33.68,46.34-6.31,93.47-7.71,140.08-4.16,14.99,1.14,29.92,2.77,44.37,4.87,22.54,3.27,44.71,7.64,65.9,12.98,111.79,27.85,214.42,85.06,296.75,165.43,142.44,138.97,211.23,331.9,188.73,529.3h0c-12.48,109.43-53.38,214.53-118.28,303.95-13.74,18.91-28.55,37.18-44.03,54.32-7.06,7.86-14.87,16.1-23.84,25.14-24.62,24.55-51.23,47.2-79.14,67.39-23.32,16.95-48.27,32.61-74.13,46.54-30.25,16.32-62.26,30.42-95.13,41.9-11.86,4.1-23.89,7.91-35.83,11.35-60.13,17.18-121.51,25.55-182.36,25.55Zm6.59-1259.28c-28.58,0-57.18,1.93-85.47,5.79-44.6,6.03-88.53,16.82-130.59,32.08-18.29,6.65-36.55,14.27-54.27,22.67-7.16,3.34-13.57,6.51-19.69,9.74-56.97,29.37-109.1,67.45-155.07,113.24-117.69,117.4-182,272.72-181.1,437.34,.9,163.28,66.03,316.27,183.38,430.79,159.45,155.66,393.16,213.87,609.91,151.95,11.38-3.28,22.89-6.92,34.18-10.82,31.26-10.92,61.74-24.34,90.54-39.88,24.63-13.27,48.38-28.18,70.61-44.33,26.61-19.24,51.95-40.82,75.34-64.14,8.54-8.61,16-16.47,22.73-23.98,14.77-16.35,28.88-33.76,41.96-51.77,61.73-85.05,100.63-185.01,112.5-289.08,21.4-187.7-44.02-371.15-179.48-503.32-78.36-76.5-176.04-130.94-282.48-157.46-20.19-5.09-41.3-9.25-62.78-12.37-13.74-1.99-27.95-3.55-42.25-4.63-15.96-1.22-31.99-1.83-48.02-1.83Zm630.56,681.38h0Z"/><path class="cls-8" d="M2543.91,1240.61c-248.67,378.66-790.04,399.44-984.01-2.03-131.97-273.14,37.94-613.01,312.68-722.74,199.95-79.87,430.09-71.73,638.81,199.86,0,0,73.5,134.41,73.24,243.8-.26,109.39-19.22,215.84-19.22,215.84l-21.5,65.26Z"/><path class="cls-7" d="M1559.92,1238.57c193.96,401.47,735.34,380.67,984,2.05l4.34-13.24c-353.87,221.32-826.29,150.3-1030.08-251.97-10.99,88.23,1.02,178.86,41.73,263.16Z"/><path class="cls-8" d="M2021.16,1612.88c-66.9,0-132.88-10.38-195.19-31.41-150.31-50.72-268.16-156.97-340.8-307.28-66.72-138.07-70.38-299.32-10.31-454.04,66.72-171.85,205.05-313.78,370.02-379.68,91.68-36.62,180.79-53.5,264.88-50.18,1.07,.04,2.13,.19,3.16,.45,111.83,27.86,214.45,85.06,296.78,165.43,142.43,138.97,211.22,331.88,188.72,529.27h0c-12.48,109.42-53.37,214.52-118.28,303.94-13.74,18.91-28.55,37.18-44.03,54.32-7.06,7.86-14.87,16.1-23.84,25.14-24.61,24.55-51.22,47.2-79.14,67.38-.66,.48-1.36,.9-2.08,1.27-98.35,49.93-205.25,75.37-309.92,75.37Zm67.78-1191.7c-73.92,0-152.01,16.24-232.44,48.36-157.07,62.73-288.83,198.04-352.47,361.95-56.9,146.54-53.59,298.94,9.31,429.11,68.9,142.57,180.46,243.28,322.63,291.25,151.52,51.12,326.34,35.92,479.85-41.66,26.22-19.04,51.22-40.37,74.33-63.41,8.54-8.61,16-16.47,22.73-23.98,14.77-16.36,28.88-33.76,41.97-51.77,61.73-85.05,100.64-185.02,112.5-289.1,21.4-187.71-44.02-371.17-179.49-503.34-77.98-76.13-175.09-130.42-280.93-157.08-5.97-.22-11.98-.32-18-.32Zm493.96,662.51h0Z"/><path class="cls-8" d="M2025.23,1542.21c-12.48,0-24.96-.41-37.48-1.23-192.2-12.6-351.43-121.24-436.86-298.05-58.87-121.85-62.08-264.2-9.03-400.83,58.97-151.88,181.22-277.32,327-335.55,251-100.25,469.85-31.94,650.45,203.06,.32,.41,.6,.84,.84,1.3,3.05,5.58,74.73,137.94,74.47,248.63-.26,109-19.18,216.5-19.38,217.57-.08,.47-.2,.93-.35,1.37l-21.5,65.27c-.27,.83-.66,1.63-1.14,2.36-121.54,185.08-320.83,296.12-527.04,296.12Zm58.23-1060.1c-66.25,0-135.35,14.32-207.17,43.01-140.73,56.21-258.78,177.41-315.78,324.22-51.02,131.4-48.03,268.09,8.4,384.89,82.2,170.14,235.35,274.68,420.16,286.8,211.69,13.86,420.73-95.23,545.76-284.81l20.85-63.31c1.61-9.29,18.7-110.74,18.95-213.43,.24-101.66-66.17-228.06-71.66-238.33-122.51-159.15-263.03-239.04-419.51-239.04Zm460.45,758.49h0Z"/><path class="cls-3" d="M1287,1319.1c39.98,117.55,143.97,192.43,232.29,167.21,88.32-25.22,127.5-140.97,87.53-258.52-.24-.74-.52-1.52-.8-2.25-40.51-116.26-143.79-190.01-231.49-164.96-68.23,19.48-107.13,92.99-102.88,179.61,1.26,25.5,6.27,52.18,15.36,78.91Z"/><g class="cls-10"><path class="cls-8" d="M1287,1319.1c39.98,117.55,143.97,192.43,232.29,167.21,88.32-25.22,127.5-140.97,87.53-258.52-.24-.74-.52-1.52-.8-2.25-5.61,14.84-16.68,31.03-38.52,32.87-38.25,3.21-128.32-54-128.32-54,0,0-72.76,15.04-167.54,35.78,1.26,25.5,6.27,52.18,15.36,78.91Z"/></g><path class="cls-8" d="M1484.46,1506.79c-85.79,0-175.42-74.18-212.31-182.63h0c-24.57-72.25-21.79-145.91,7.63-202.09,20.43-39.02,51.7-65.49,90.43-76.55,96.09-27.45,208.88,52.06,251.45,177.22,24.57,72.25,21.79,145.91-7.63,202.09-20.43,39.02-51.7,65.49-90.43,76.55-12.81,3.66-25.93,5.41-39.14,5.41Zm-74.37-435.46c-10.58,0-21.04,1.4-31.27,4.33-30.27,8.64-54.92,29.72-71.27,60.95-25.08,47.9-27.22,114.24-5.72,177.46h0c32.52,95.62,109.48,161.48,181.89,161.49,10.58,0,21.04-1.4,31.27-4.32,30.27-8.65,54.92-29.72,71.27-60.95,25.08-47.9,27.22-114.24,5.72-177.46-32.52-95.62-109.48-161.49-181.88-161.49Z"/><g><ellipse class="cls-3" cx="1402.25" cy="1308.24" rx="135.11" ry="178.74" transform="translate(-413.93 692.38) rotate(-24.28)"/><path class="cls-8" d="M1432.37,1482.03c-2.42,0-4.86-.07-7.32-.22-44.01-2.66-88.06-29.07-120.86-72.44h0c-58.84-77.82-62.86-186.51-8.97-242.28,22.41-23.19,51.54-34.42,84.26-32.42,44.01,2.66,88.06,29.07,120.86,72.44,58.84,77.82,62.86,186.5,8.97,242.28-20.72,21.44-47.19,32.64-76.93,32.64Zm-125.58-74.64c32.22,42.61,75.39,68.54,118.45,71.15,31.75,1.94,59.98-8.95,81.7-31.43,52.82-54.66,48.68-161.44-9.23-238.03-32.22-42.61-75.39-68.54-118.45-71.15-31.73-1.92-59.98,8.95-81.7,31.43-52.82,54.66-48.68,161.44,9.23,238.03Z"/></g><g class="cls-10"><path class="cls-8" d="M1547.66,1339.22c-2.64-33.75-14.67-66.84-32.95-95.58-.56,77.48-55.01,127.3-127.12,113.01-46.6-9.22-89.85-43.13-118.13-87.61-.07,4.89,.14,9.93,.53,15.05,6.75,85.93,74.38,167.93,151.07,183.14,76.69,15.21,133.34-42.13,126.6-128.01Z"/></g><path class="cls-8" d="M1436.14,1496.21c-67.8,0-140.68-62.84-171.91-153.5h0c-21.09-61.22-19.46-124.8,4.37-170.08,15.41-29.29,38.79-49,67.6-56.98,74.59-20.66,164.18,46.52,199.75,149.77,21.09,61.22,19.46,124.8-4.37,170.08-15.41,29.29-38.79,49-67.6,56.98-9.09,2.52-18.43,3.74-27.84,3.74Zm-142.28-163.71c30.28,87.88,102.84,146.1,161.75,129.77,20.27-5.62,36.95-19.92,48.23-41.37,19.87-37.77,20.8-92.08,2.47-145.28-30.28-87.88-102.83-146.08-161.75-129.77-20.27,5.62-36.95,19.92-48.23,41.37-19.87,37.77-20.79,92.08-2.47,145.28h0Z"/><g class="cls-12"><path class="cls-3" d="M1768.1,690.29s268.33-88.08,472.4,2.71c.21,.1,.43,.19,.64,.29,42.93,19.15,79.77,49.45,106.88,87.44,35.85,50.23,53.07,90.08,66.85,125.74,41.87,108.47,40.88,167.14,40.88,167.14,40.54-81.16,50.74-159.65,16.78-250.35-3.37-8.93-7.18-18.02-11.4-27.22-.96-2.12-1.97-4.21-3.01-6.29,.04-.04,0-.08-.08-.12-9.86-18.04-23.73-41.25-41.61-66.14-53.85-75.09-143.88-165.5-269.53-175.55-234.95-18.78-392.26,134.48-378.82,142.35Z"/></g><g class="cls-12"><ellipse class="cls-3" cx="1677.67" cy="1025.72" rx="85.35" ry="98.04" transform="translate(-89.46 163.2) rotate(-5.42)"/></g><g class="cls-12"><ellipse class="cls-3" cx="1696.02" cy="1202.89" rx="35.23" ry="40.5" transform="translate(-1.96 2.76) rotate(-.09)"/></g></g></g></g></g></g></svg>